# File created by Blade
# Date/Time:  Wed Sep 24 19:53:44 2014
# Frame Rate: 120.000 fps
#------------------------------------------------------
:FULLY-SPECIFIED
:DEGREES
2643
root -6.213892 32.849753 -4.702791 9.032946 9.756500 -0.535227
Spine -12.730849 9.057789 1.468674
Head -19.014313 -4.632476 12.221184
LeftShoulder -13.883698 16.303986 21.797474
LeftArm 72.974179 -82.037067 -103.110288
LeftForeArm -42.422536 -0.000000 116.324747
LeftHand -17.994535 -0.000000 12.469382
LeftHandThumb1 -26.253704 0.000000 33.147579
RightShoulder -20.508430 12.319054 -16.466007
RightArm -11.816990 -12.749621 76.555273
RightForeArm -21.359186 0.000000 19.939329
RightHand -7.698085 -0.000000 8.955370
RightHandThumb1 -24.326973 -0.000000 -32.862282
LeftUpLeg -5.104261 2.520460 5.013033
LeftLeg -1.617239 -0.000000 0.000000
LeftFoot -8.109891 2.542605 -18.635494
LeftToeBase 11.891379 -0.000000 -0.000000
RightUpLeg -4.391156 -11.993202 -2.346992
RightLeg 2.274998 -0.000000 -0.000000
RightFoot -7.372721 -7.444419 -13.118326
RightToeBase -0.144906 -0.000000 0.000000
2644
root -6.214144 32.850210 -4.706123 9.027335 9.756236 -0.539193
Spine -12.718586 9.055610 1.466830
Head -19.001295 -4.663505 12.246779
LeftShoulder -13.880247 16.299986 21.803418
LeftArm 72.725779 -82.013976 -102.854653
LeftForeArm -42.423591 -0.000000 116.309314
LeftHand -17.964553 -0.000000 12.454517
LeftHandThumb1 -26.253704 0.000000 33.147579
RightShoulder -20.480810 12.351332 -16.477930
RightArm -11.832905 -12.771529 76.567000
RightForeArm -21.344137 0.000000 19.949750
RightHand -7.652993 -0.000000 8.960999
RightHandThumb1 -24.326973 -0.000000 -32.862282
LeftUpLeg -5.103391 2.506596 5.016256
LeftLeg -1.621481 -0.000000 0.000000
LeftFoot -8.108970 2.562705 -18.642908
LeftToeBase 11.889431 -0.000000 -0.000000
RightUpLeg -4.387440 -11.974697 -2.344412
RightLeg 2.265866 -0.000000 -0.000000
RightFoot -7.356903 -7.458884 -13.123647
RightToeBase -0.133050 -0.000000 0.000000
2645
root -6.212891 32.850803 -4.708735 9.022878 9.767490 -0.537132
Spine -12.713116 9.040718 1.465009
Head -18.989574 -4.707239 12.261817
LeftShoulder -13.872242 16.305437 21.802735
LeftArm 72.518699 -81.998741 -102.635655
LeftForeArm -42.451646 0.000000 116.300020
LeftHand -18.008368 -0.000000 12.467021
LeftHandThumb1 -26.253704 0.000000 33.147579
RightShoulder -20.459805 12.366039 -16.491951
RightArm -11.826815 -12.793268 76.584160
RightForeArm -21.329393 -0.000000 19.955983
RightHand -7.677204 0.000000 8.977154
RightHandThumb1 -24.326973 -0.000000 -32.862282
LeftUpLeg -5.099522 2.490880 5.012686
LeftLeg -1.634564 -0.000000 0.000000
LeftFoot -8.092888 2.572948 -18.630059
LeftToeBase 11.883270 -0.000000 -0.000000
RightUpLeg -4.378273 -11.999310 -2.346357
RightLeg 2.250005 -0.000000 -0.000000
RightFoot -7.341664 -7.443853 -13.098845
RightToeBase -0.155746 -0.000000 0.000000
2646
root -6.212902 32.851401 -4.711487 9.020158 9.779605 -0.536359
Spine -12.712895 9.038691 1.455834
Head -18.968577 -4.746265 12.280360
LeftShoulder -13.853373 16.309962 21.808668
LeftArm 72.324861 -81.969607 -102.429538
LeftForeArm -42.446398 -0.000000 116.288299
LeftHand -18.015290 -0.000000 12.475421
LeftHandThumb1 -26.253704 0.000000 33.147579
RightShoulder -20.451879 12.385833 -16.505945
RightArm -11.827360 -12.803890 76.602029
RightForeArm -21.324929 -0.000000 19.961367
RightHand -7.708100 -0.000000 8.988448
RightHandThumb1 -24.326973 -0.000000 -32.862282
LeftUpLeg -5.103963 2.488722 5.012563
LeftLeg -1.634352 -0.000000 0.000000
LeftFoot -8.077852 2.569799 -18.606938
LeftToeBase 11.860855 -0.000000 -0.000000
RightUpLeg -4.378959 -12.021750 -2.344078
RightLeg 2.248330 -0.000000 -0.000000
RightFoot -7.328928 -7.440784 -13.110759
RightToeBase -0.165580 -0.000000 0.000000
2647
root -6.211536 32.852019 -4.714388 9.019041 9.783595 -0.534718
Spine -12.716362 9.032398 1.455141
Head -18.931518 -4.774551 12.282132
LeftShoulder -13.844822 16.310249 21.810834
LeftArm 72.033019 -81.946475 -102.133634
LeftForeArm -42.425555 -0.000000 116.278319
LeftHand -18.028296 -0.000000 12.476951
LeftHandThumb1 -26.253704 0.000000 33.147579
RightShoulder -20.413729 12.400560 -16.517330
RightArm -11.832068 -12.805348 76.619857
RightForeArm -21.321101 -0.000000 19.981265
RightHand -7.757749 -0.000000 8.946551
RightHandThumb1 -24.326973 -0.000000 -32.862282
LeftUpLeg -5.107170 2.498329 5.005271
LeftLeg -1.636695 -0.000000 0.000000
LeftFoot -8.059825 2.558669 -18.614037
LeftToeBase 11.851946 -0.000000 -0.000000
RightUpLeg -4.379614 -12.013661 -2.350211
RightLeg 2.245246 -0.000000 -0.000000
RightFoot -7.326866 -7.441531 -13.100471
RightToeBase -0.135244 -0.000000 0.000000
2648
root -6.210967 32.852424 -4.717186 9.016133 9.797596 -0.533526
Spine -12.715792 9.024743 1.452279
Head -18.904845 -4.802429 12.293896
LeftShoulder -13.836129 16.325446 21.804044
LeftArm 71.888482 -81.908019 -101.973034
LeftForeArm -42.408948 -0.000000 116.273757
LeftHand -18.033094 -0.000000 12.513326
LeftHandThumb1 -26.253704 0.000000 33.147579
RightShoulder -20.402546 12.413709 -16.525505
RightArm -11.818682 -12.808351 76.628886
RightForeArm -21.306977 -0.000000 19.999042
RightHand -7.821241 0.000000 8.947778
RightHandThumb1 -24.326973 -0.000000 -32.862282
LeftUpLeg -5.110619 2.483531 5.002989
LeftLeg -1.639530 -0.000000 0.000000
LeftFoot -8.060646 2.577406 -18.604481
LeftToeBase 11.856302 -0.000000 -0.000000
RightUpLeg -4.378116 -12.018328 -2.351781
RightLeg 2.242712 -0.000000 -0.000000
RightFoot -7.324867 -7.444284 -13.092496
RightToeBase -0.114841 -0.000000 0.000000
2649
root -6.210755 32.853066 -4.719548 9.014377 9.806322 -0.534875
Spine -12.717601 9.020283 1.451626
Head -18.876799 -4.826676 12.290517
LeftShoulder -13.822446 16.331399 21.806195
LeftArm 71.733242 -81.888552 -101.822555
LeftForeArm -42.465591 0.000000 116.266965
LeftHand -17.813715 -0.000000 12.276150
LeftHandThumb1 -26.253704 0.000000 33.147579
RightShoulder -20.394268 12.440126 -16.539240
RightArm -11.817721 -12.817175 76.644051
RightForeArm -21.268045 -0.000000 20.010255
RightHand -7.815007 -0.000000 9.007018
RightHandThumb1 -24.326973 -0.000000 -32.862282
LeftUpLeg -5.113726 2.487591 5.003787
LeftLeg -1.642447 -0.000000 0.000000
LeftFoot -8.041312 2.557818 -18.593683
LeftToeBase 11.855104 -0.000000 -0.000000
RightUpLeg -4.376712 -12.028958 -2.349125
RightLeg 2.236818 -0.000000 -0.000000
RightFoot -7.313767 -7.443543 -13.088806
RightToeBase -0.123434 -0.000000 0.000000
2650
root -6.210410 32.853311 -4.722142 9.013590 9.821314 -0.534006
Spine -12.720694 9.007047 1.446877
Head -18.837961 -4.826878 12.302444
LeftShoulder -13.806187 16.319740 21.816136
LeftArm 71.512122 -81.878663 -101.606474
LeftForeArm -42.501307 -0.000000 116.261850
LeftHand -17.788942 -0.000000 12.234280
LeftHandThumb1 -26.253704 0.000000 33.147579
RightShoulder -20.369516 12.465283 -16.544081
RightArm -11.825847 -12.803632 76.654935
RightForeArm -21.269572 -0.000000 20.030966
RightHand -7.829387 -0.000000 8.985520
RightHandThumb1 -24.326973 -0.000000 -32.862282
LeftUpLeg -5.118043 2.493731 5.000314
LeftLeg -1.646360 -0.000000 0.000000
LeftFoot -8.030603 2.555333 -18.564312
LeftToeBase 11.893779 -0.000000 -0.000000
RightUpLeg -4.378526 -12.038155 -2.347301
RightLeg 2.237088 -0.000000 -0.000000
RightFoot -7.303138 -7.456491 -13.120296
RightToeBase -0.083186 -0.000000 0.000000
